<svg width="40" height="40" viewBox="0 0 40 40" fill="none" xmlns="http://www.w3.org/2000/svg">
    <style>
        @keyframes fly-in {
            0% { opacity: 0; transform: translateX(-10px); }
            100% { opacity: 1; transform: translateX(0); }
        }
        @keyframes fly-out {
            0% { opacity: 0; transform: translateX(10px); }
            100% { opacity: 1; transform: translateX(0); }
        }
        .message-in {
            fill: #e3f2fd;
            animation: fly-in 0.6s ease-out;
        }
        .message-out {
            fill: #20c997;
            animation: fly-out 0.6s ease-out 0.3s both;
        }
        .messenger-icon:hover .message-in {
            transform: translateX(-2px);
        }
        .messenger-icon:hover .message-out {
            transform: translateX(2px);
        }
    </style>
    
    <!-- Фон чата -->
    <rect x="8" y="8" width="24" height="24" rx="12" fill="#f8f9fa" stroke="#20c997" stroke-width="1"/>
    
    <!-- Входящее сообщение -->
    <path class="message-in" d="M16 18H24C25.1 18 26 18.9 26 20V22C26 23.1 25.1 24 24 24H20L18 26V24H16C14.9 24 14 23.1 14 22V20C14 18.9 14.9 18 16 18Z"/>
    
    <!-- Исходящее сообщение -->
    <path class="message-out" d="M24 16H16C14.9 16 14 16.9 14 18V20C14 21.1 14.9 22 16 22H20L22 24V22H24C25.1 22 26 21.1 26 20V18C26 16.9 25.1 16 24 16Z"/>
</svg>
