<?xml version="1.0" encoding="UTF-8"?>
<svg version="1.1" xmlns="http://www.w3.org/2000/svg" width="32" height="34">
<path d="M0 0 C28.04132207 27.74570573 31.04492098 67.95633735 31.2746582 105.47729492 C31.30140399 110.54811446 31.30511222 115.61881664 31.30158257 120.68969512 C31.30049289 123.80481949 31.3054461 126.91992441 31.310188 130.03504449 C31.32118569 137.40594696 31.32177661 144.77679843 31.31567383 152.14770508 C31.30964618 159.66226567 31.32193706 167.17663845 31.3432439 174.69116706 C31.36106314 181.22451028 31.36682973 187.75779484 31.36360615 194.29116136 C31.36182468 198.15721001 31.36410402 202.0231248 31.37832069 205.88915062 C31.50491021 243.54189916 31.10963029 285.56408449 6 316 C5.46632813 316.680625 4.93265625 317.36125 4.3828125 318.0625 C-11.20349618 337.15386374 -37.3196272 345.46390209 -61 348 C-62.11455818 348.12034733 -62.11455818 348.12034733 -63.25163269 348.24312592 C-80.87832416 350.08188072 -98.42697169 350.29920185 -116.12474442 350.26865101 C-120.07722464 350.26347958 -124.02969701 350.26831259 -127.98217773 350.27142334 C-134.61150818 350.27503133 -141.24079362 350.27034827 -147.87011719 350.26074219 C-155.46369885 350.24986384 -163.057173 350.25339169 -170.65075207 350.264395 C-177.24689477 350.27355939 -183.84300568 350.27470908 -190.43915272 350.26951766 C-194.34526637 350.26644757 -198.25133003 350.2658477 -202.15744019 350.27259064 C-249.27881745 350.34279324 -249.27881745 350.34279324 -271 345 C-271.77794922 344.80954102 -272.55589844 344.61908203 -273.35742188 344.42285156 C-291.53043389 339.81930558 -305.9043115 332.47731132 -319 319 C-320.01320313 317.96552734 -320.01320313 317.96552734 -321.046875 316.91015625 C-355.55036963 279.58226051 -347.49956273 214.45700872 -347.3857069 167.56998283 C-347.37276883 161.61936172 -347.38193572 155.6689334 -347.3965925 149.71832454 C-347.41041941 143.85899016 -347.41202654 137.99973601 -347.40427649 132.14039052 C-347.39971561 128.69021656 -347.39863823 125.24016935 -347.40888596 121.79000473 C-347.4877088 83.02961582 -347.5639846 36.95517389 -321 6 C-320.55398438 5.39800781 -320.10796875 4.79601563 -319.6484375 4.17578125 C-304.35799164 -15.94569505 -276.40390298 -21.66354739 -253 -25 C-187.30678884 -33.59581361 -52.07424321 -48.10104608 0 0 Z M-227.1796875 0.93359375 C-228.3535564 0.99624294 -228.3535564 0.99624294 -229.55113983 1.06015778 C-254.19584339 2.41164814 -282.24003034 4.59185134 -300 24 C-326.60126888 58.80690222 -319.18910713 115.5118172 -319.18530273 156.54785156 C-319.18522161 161.16833421 -319.19215602 165.7887174 -319.20581055 170.40917969 C-319.32009081 203.07691342 -319.32009081 203.07691342 -318.17578125 235.71875 C-318.12376588 236.7329879 -318.12376588 236.7329879 -318.07069969 237.76771545 C-316.82032631 261.17144775 -312.74931582 286.8294914 -295.0078125 303.67578125 C-289.21560125 308.15158085 -282.70308165 311.13362399 -276 314 C-275.19820312 314.34804688 -274.39640625 314.69609375 -273.5703125 315.0546875 C-248.51038469 324.51310383 -217.27933106 322.31404775 -190.96484375 322.265625 C-188.29708131 322.26697932 -185.62932421 322.26892528 -182.96156311 322.27142334 C-177.42479403 322.27501301 -171.88807912 322.27039791 -166.35131836 322.26074219 C-160.04146766 322.24986206 -153.73174638 322.25340065 -147.42189878 322.264395 C-141.90410255 322.27360712 -136.3863442 322.27468689 -130.86854273 322.26951766 C-127.61684028 322.26647345 -124.36520846 322.2666125 -121.11350822 322.27259064 C-67.87279181 324.10158017 -67.87279181 324.10158017 -21 303 C-20.30390625 302.39414062 -19.6078125 301.78828125 -18.890625 301.1640625 C-4.97402892 288.34614505 -1.39414085 268.96172075 1 251 C1.15995453 249.88639099 1.31990906 248.77278198 1.48471069 247.62542725 C2.18358749 241.99081876 2.35773528 236.34133223 2.55419922 230.6706543 C2.59630964 229.48538241 2.63842007 228.30011053 2.68180656 227.07892132 C3.09770899 214.47536432 3.14537062 201.87874264 3.1328125 189.26953125 C3.13348947 186.80970754 3.13446273 184.34988391 3.13571167 181.89006042 C3.13716937 176.78518016 3.13509663 171.68031762 3.13037109 166.57543945 C3.12466585 160.10477447 3.12797031 153.63415092 3.13394356 147.16348743 C3.13759404 142.10047607 3.13639036 137.03747419 3.13381577 131.97446251 C3.13315932 129.59117312 3.13392876 127.2078828 3.13629532 124.8245945 C3.42196895 94.76566963 3.42196895 94.76566963 0.25 64.9375 C0.0744458 63.90149658 -0.1011084 62.86549316 -0.28198242 61.7980957 C-3.6976068 42.65714593 -10.48129731 25.88067207 -26.875 14.375 C-37.09237897 8.21927512 -48.66025096 5.09399166 -60.38964844 3.40136719 C-61.68395342 3.21224321 -61.68395342 3.21224321 -63.00440598 3.01929855 C-72.09095419 1.75494916 -81.1678424 1.20478998 -90.328125 0.828125 C-91.21262581 0.78875069 -92.09712662 0.74937637 -93.00843048 0.7088089 C-113.27254738 -0.18548533 -133.5340995 -0.30770587 -153.81494141 -0.26074219 C-158.77074884 -0.2493174 -163.72634199 -0.25616064 -168.68214226 -0.26762676 C-188.20501868 -0.30582024 -207.68161402 -0.11268443 -227.1796875 0.93359375 Z " fill="#AB2DEF" transform="translate(378,43)"/>
<path d="M0 0 C5.69814454 4.04020983 10.92119386 8.57217717 16.05078125 13.3046875 C18.1701884 15.25779726 20.32824394 17.14732119 22.515625 19.0234375 C33.70078863 28.83300641 42.32779838 38.6419435 44.7734375 53.83984375 C45.40042122 65.52264044 38.64737785 75.92293961 31.21118164 84.29125977 C30.4646936 85.11775024 30.4646936 85.11775024 29.703125 85.9609375 C29.21513428 86.50226318 28.72714355 87.04358887 28.22436523 87.60131836 C26.99029521 88.92997117 25.69471911 90.20094319 24.390625 91.4609375 C23.730625 91.4609375 23.070625 91.4609375 22.390625 91.4609375 C22.390625 92.1209375 22.390625 92.7809375 22.390625 93.4609375 C20.86225231 94.85693146 19.26412401 96.17681399 17.640625 97.4609375 C16.64675781 98.255 15.65289062 99.0490625 14.62890625 99.8671875 C14.10119629 100.28742188 13.57348633 100.70765625 13.02978516 101.140625 C9.24108865 104.19234837 5.54423425 107.35750604 1.82421875 110.4921875 C-2.2007856 113.7483708 -4.99967321 113.80067792 -10.06640625 113.7421875 C-14.80909752 113.21765022 -17.43170234 110.79563318 -20.484375 107.3359375 C-22.20251411 102.94513754 -22.5760687 99.09538081 -21.609375 94.4609375 C-19.75767021 91.25606382 -17.33055227 88.94443619 -14.609375 86.4609375 C-13.81402344 85.7184375 -13.01867187 84.9759375 -12.19921875 84.2109375 C-9.69977751 81.92396808 -7.16063378 79.68980633 -4.609375 77.4609375 C-3.83464844 76.7596875 -3.05992187 76.0584375 -2.26171875 75.3359375 C-1.55144531 74.6965625 -0.84117187 74.0571875 -0.109375 73.3984375 C0.5196875 72.82996094 1.14875 72.26148438 1.796875 71.67578125 C3.390625 70.4609375 3.390625 70.4609375 5.390625 70.4609375 C5.390625 69.8009375 5.390625 69.1409375 5.390625 68.4609375 C7.0343064 66.77159828 8.7049126 65.10833826 10.390625 63.4609375 C12.96991009 60.74223159 14.28446386 59.34521151 14.734375 55.59765625 C14.30934625 51.71926895 13.25418474 50.50416273 10.578125 47.7109375 C9.75441406 46.85113281 8.93070313 45.99132812 8.08203125 45.10546875 C1.00142115 38.14817842 -6.39131478 31.69543838 -14.19921875 25.56640625 C-17.72452811 22.48675998 -21.226739 19.11032855 -21.91796875 14.32421875 C-22.16192051 9.49693087 -22.06649577 6.29092434 -18.921875 2.4609375 C-13.21985248 -3.17462788 -6.99403478 -4.12522411 0 0 Z " fill="#A62CE9" transform="translate(140.609375,157.5390625)"/>
<path d="M0 0 C0.9172435 -0.0049649 1.834487 -0.00992981 2.77952576 -0.01504517 C5.82405337 -0.02968927 8.86852884 -0.03647319 11.91308594 -0.04199219 C14.0257772 -0.04774262 16.13846844 -0.05350036 18.25115967 -0.05926514 C22.68648523 -0.06978209 27.12179263 -0.07561994 31.55712891 -0.07910156 C37.23782819 -0.08458202 42.91828727 -0.10859765 48.59891129 -0.13707352 C52.96554258 -0.15570864 57.33211618 -0.16090601 61.69878387 -0.16243744 C63.7927354 -0.16546346 65.88668592 -0.17349027 67.98059845 -0.18662262 C70.91303181 -0.2036981 73.84488069 -0.20179887 76.77734375 -0.1953125 C78.07275337 -0.20913467 78.07275337 -0.20913467 79.39433289 -0.22323608 C85.58343708 -0.18040277 89.82794455 0.96699568 94.45996094 5.34863281 C96.58882253 8.89673546 97.34184418 12.07130943 97.14746094 16.16113281 C95.57848209 21.39106229 93.68245713 24.13780202 89.14746094 27.16113281 C85.76173762 28.85399447 81.91220133 28.31754792 78.18725586 28.32226562 C76.79435081 28.32971298 76.79435081 28.32971298 75.37330627 28.33731079 C72.29150662 28.35195381 69.20975846 28.35873822 66.12792969 28.36425781 C63.99042255 28.37000781 61.85291543 28.37576556 59.71540833 28.38153076 C55.22880818 28.39204705 50.74222598 28.39788551 46.25561523 28.40136719 C40.50531664 28.40685111 34.75525494 28.43087444 29.00503063 28.45933914 C24.58782762 28.47795969 20.17068171 28.48317083 15.75344276 28.48470306 C13.63354511 28.48773178 11.51364851 28.49576767 9.39378929 28.50888824 C6.42762602 28.52593521 3.46204194 28.5240716 0.49584961 28.51757812 C-0.38070282 28.52679291 -1.25725525 28.53600769 -2.16036987 28.54550171 C-6.89597073 28.51301196 -10.00456948 28.22603138 -13.85253906 25.16113281 C-17.76048466 20.71041699 -19.1653551 18.20832909 -19.06738281 12.18847656 C-18.61222673 7.89345825 -16.43075443 5.66883411 -13.29003906 2.91113281 C-8.88665951 -0.25026789 -5.27071301 0.00675908 0 0 Z " fill="#B02DF6" transform="translate(224.8525390625,242.8388671875)"/>
<path d="M0 0 C0.33 0 0.66 0 1 0 C5.46306377 23.83276056 6.31842067 47.49917645 6.30158257 71.68969512 C6.30049289 74.80481949 6.3054461 77.91992441 6.310188 81.03504449 C6.32118569 88.40594696 6.32177661 95.77679843 6.31567383 103.14770508 C6.30964618 110.66226567 6.32193706 118.17663845 6.3432439 125.69116706 C6.36106314 132.22451028 6.36682973 138.75779484 6.36360615 145.29116136 C6.36182468 149.15721001 6.36410402 153.0231248 6.37832069 156.88915062 C6.44982805 178.12243578 5.5863512 199.01613225 2 220 C1.67 220 1.34 220 1 220 C0.97292861 217.75006641 0.95357171 215.50003905 0.9375 213.25 C0.92589844 211.99703125 0.91429687 210.7440625 0.90234375 209.453125 C1 206 1 206 1.49774647 204.24103546 C2.20927923 201.06620432 2.14099393 197.92660566 2.13371277 194.69030762 C2.13597833 193.95215018 2.13824388 193.21399274 2.14057809 192.45346689 C2.14691059 189.97872766 2.14608919 187.50404331 2.14526367 185.02929688 C2.14825578 183.25509572 2.15165843 181.48089521 2.15544128 179.70669556 C2.16428395 174.88396297 2.16661962 170.06124813 2.16725707 165.23850822 C2.16796786 162.22254629 2.1701028 159.20658887 2.17275429 156.19062805 C2.18201122 145.65996006 2.18608907 135.12930474 2.18530273 124.59863281 C2.18470305 114.79898673 2.19523248 104.99939589 2.2110464 95.19976377 C2.22415213 86.77663271 2.2294853 78.35351961 2.22884732 69.93037844 C2.22859307 64.90428509 2.23140379 59.87824075 2.24202538 54.85215759 C2.2517565 50.11780158 2.25175136 45.38354088 2.24450874 40.64918137 C2.24346885 38.91910537 2.24579011 37.1890233 2.2518692 35.45895767 C2.27968585 26.98818452 2.13548751 18.79946897 0.44116688 10.45584869 C-0.19372539 6.92158664 -0.13770959 3.58044924 0 0 Z " fill="#9B2BD9" transform="translate(403,92)"/>
<path d="M0 0 C2.64 0 5.28 0 8 0 C8 0.66 8 1.32 8 2 C11.3 2 14.6 2 18 2 C18 2.66 18 3.32 18 4 C19.48113281 3.98259766 19.48113281 3.98259766 20.9921875 3.96484375 C22.27351563 3.95582031 23.55484375 3.94679688 24.875 3.9375 C26.15117188 3.92589844 27.42734375 3.91429687 28.7421875 3.90234375 C32 4 32 4 34 5 C36.58716103 5.20882914 39.15873241 5.37461608 41.75 5.5 C43.16161564 5.56980517 44.57308328 5.64267665 45.984375 5.71875 C46.92361816 5.76418945 46.92361816 5.76418945 47.88183594 5.81054688 C50 6 50 6 52.39978027 6.50375366 C57.51241922 7.20846853 62.56663417 7.13885074 67.72167969 7.12939453 C69.48380295 7.13202301 69.48380295 7.13202301 71.28152466 7.13470459 C75.16165651 7.13910243 79.04174269 7.13619159 82.921875 7.1328125 C85.62461382 7.13303534 88.32735183 7.13445559 91.03009033 7.13571167 C96.69584648 7.13752919 102.36158958 7.13513905 108.02734375 7.13037109 C114.5563006 7.12493979 121.08522616 7.12668457 127.61418223 7.1321975 C133.23649637 7.13675311 138.85880115 7.13736692 144.48111653 7.13475883 C147.83148228 7.13320813 151.1818217 7.13336739 154.53218842 7.13629532 C158.27506085 7.13884763 162.01787414 7.13494448 165.76074219 7.12939453 C166.85615326 7.13141876 167.95156433 7.13344299 169.08016968 7.13552856 C174.73244798 7.1200784 180.26739305 6.88089462 185.88401413 6.23270226 C188.93001705 5.89772282 191.96921107 5.80247067 195.03125 5.71875 C196.25328125 5.68136719 197.4753125 5.64398438 198.734375 5.60546875 C201.27601732 5.53428167 203.81768487 5.46399039 206.359375 5.39453125 C207.57109375 5.35714844 208.7828125 5.31976563 210.03125 5.28125 C211.67963867 5.23581055 211.67963867 5.23581055 213.36132812 5.18945312 C215.97735856 5.17049219 215.97735856 5.17049219 218 4 C219.99960012 3.960008 222.00047242 3.95653201 224 4 C224 3.34 224 2.68 224 2 C224.98742187 1.93941406 225.97484375 1.87882812 226.9921875 1.81640625 C228.27351562 1.73261719 229.55484375 1.64882813 230.875 1.5625 C232.15117187 1.48128906 233.42734375 1.40007812 234.7421875 1.31640625 C237.88300152 1.20793973 237.88300152 1.20793973 240 0 C242.6723621 -0.13415472 245.32250488 -0.04318541 248 0 C227.23406738 13.84395508 189.81836638 9.30998288 165.87525558 9.26865101 C161.92277536 9.26347958 157.97030299 9.26831259 154.01782227 9.27142334 C147.38849182 9.27503133 140.75920638 9.27034827 134.12988281 9.26074219 C126.53630115 9.24986384 118.942827 9.25339169 111.34924793 9.264395 C104.75310523 9.27355939 98.15699432 9.27470908 91.56084728 9.26951766 C87.65473363 9.26644757 83.74866997 9.2658477 79.84255981 9.27259064 C52.81048418 9.31282923 26.10333886 8.79781945 0 1 C0 0.67 0 0.34 0 0 Z " fill="#70354B" transform="translate(96,384)"/>
<path d="M0 0 C0.33 0 0.66 0 1 0 C1.05602611 2.16634292 1.0936614 4.33315934 1.125 6.5 C1.14820313 7.7065625 1.17140625 8.913125 1.1953125 10.15625 C1.13787624 14.243904 0.57724316 18.19178485 0.00198364 22.23681641 C-1.13627042 30.86502788 -1.26991845 39.36399382 -1.22705078 48.0546875 C-1.22648484 49.69249464 -1.22680678 51.33030228 -1.22793579 52.96810913 C-1.22850319 57.35962949 -1.21684972 61.75103775 -1.20278788 66.14253235 C-1.19017682 70.75224215 -1.18910192 75.3619553 -1.18673706 79.97167969 C-1.18055249 88.67641605 -1.16418314 97.3811014 -1.14403808 106.08581543 C-1.12158429 116.00618401 -1.11066195 125.92655519 -1.10064721 135.8469429 C-1.07981379 156.23132359 -1.04469742 176.61565857 -1 197 C-1.33 197 -1.66 197 -2 197 C-3.69824517 178.8983242 -4.31573742 160.9392668 -4.30158257 142.76292753 C-4.30048652 139.95620963 -4.30546144 137.14951296 -4.310188 134.34279978 C-4.32115641 127.69514998 -4.32179397 121.04755673 -4.31567383 114.39990234 C-4.30965136 107.64822437 -4.32193083 100.8967557 -4.3432439 94.14511335 C-4.36113054 88.25198032 -4.36681953 82.35891222 -4.36360615 76.4657532 C-4.36183474 72.98861946 -4.36399374 69.51163475 -4.37832069 66.03452682 C-4.45052555 43.86929547 -3.22368209 21.94279341 0 0 Z " fill="#5B1C77" transform="translate(35,99)"/>
<path d="M0 0 C2.82304338 1.96385626 3.07448 3.31919999 3.875 6.75 C4.2643272 11.16237491 3.2292577 14.13595333 1 18 C-4.30389836 22.91580824 -7.95763638 23.1488609 -14.97607422 23.14526367 C-15.90628387 23.14862228 -16.83649353 23.1519809 -17.79489136 23.15544128 C-20.88150352 23.16496943 -23.96806153 23.16689537 -27.0546875 23.16796875 C-29.19459048 23.17118019 -31.33449324 23.17454417 -33.47439575 23.17805481 C-37.96519479 23.18405085 -42.45597458 23.18589424 -46.94677734 23.18530273 C-52.70608964 23.18520112 -58.46527863 23.19885054 -64.22456169 23.21607494 C-68.64601205 23.22718468 -73.06743252 23.22922225 -77.48889542 23.22869301 C-79.61240183 23.22987478 -81.73590898 23.23430757 -83.8594017 23.24202538 C-86.82806825 23.25180388 -89.796466 23.24895556 -92.76513672 23.24291992 C-94.08535828 23.25134918 -94.08535828 23.25134918 -95.43225098 23.25994873 C-96.2426181 23.25575424 -97.05298523 23.25155975 -97.88790894 23.24723816 C-98.94038724 23.24805531 -98.94038724 23.24805531 -100.01412773 23.24888897 C-102.34031961 22.95734781 -103.97080491 22.14621096 -106 21 C-106 20.67 -106 20.34 -106 20 C-72.34 20 -38.68 20 -4 20 C-4 19.34 -4 18.68 -4 18 C-3.34 18 -2.68 18 -2 18 C-2 17.34 -2 16.68 -2 16 C-1.01 16 -0.02 16 1 16 C1.02712153 14.083412 1.04645097 12.1667127 1.0625 10.25 C1.07410156 9.18265625 1.08570313 8.1153125 1.09765625 7.015625 C1.01510087 4.46631499 0.74617558 2.42066409 0 0 Z " fill="#9A2DD2" transform="translate(318,248)"/>
<path d="M0 0 C0 0.33 0 0.66 0 1 C-1.79158489 1.02696365 -3.58328473 1.04637917 -5.375 1.0625 C-6.37273437 1.07410156 -7.37046875 1.08570313 -8.3984375 1.09765625 C-11 1 -11 1 -13 0 C-14.97559868 -0.20466634 -16.95588811 -0.36549059 -18.9375 -0.5 C-22.23044938 -0.7240646 -24.86163082 -0.95387694 -28 -2 C-42.90864352 -3.57976921 -58.00516317 -3.13227935 -72.97447896 -3.10139394 C-76.57253783 -3.09505984 -80.17059792 -3.09454877 -83.7686615 -3.09336853 C-90.55380258 -3.09028442 -97.33892717 -3.08211122 -104.12406105 -3.07201904 C-111.86070239 -3.06076616 -119.59734461 -3.05532454 -127.33399212 -3.05032361 C-143.2226709 -3.0399255 -159.11133331 -3.02238382 -175 -3 C-175 -2.67 -175 -2.34 -175 -2 C-187.87 -1.67 -200.74 -1.34 -214 -1 C-214 -1.33 -214 -1.66 -214 -2 C-211.06260628 -2.31352493 -208.12509139 -2.62583681 -205.1875 -2.9375 C-203.96643555 -3.06801758 -203.96643555 -3.06801758 -202.72070312 -3.20117188 C-200.14774103 -3.47360316 -197.57392882 -3.73687448 -195 -4 C-194.1850708 -4.08902588 -193.3701416 -4.17805176 -192.53051758 -4.26977539 C-183.80907931 -5.15995555 -175.07079907 -5.36047583 -166.3125 -5.5625 C-164.99634201 -5.59376984 -164.99634201 -5.59376984 -163.65359497 -5.62567139 C-39.45477074 -8.47506864 -39.45477074 -8.47506864 0 0 Z " fill="#62198A" transform="translate(333,21)"/>
<path d="M0 0 C0.33 0 0.66 0 1 0 C5.46306377 23.83276056 6.31842067 47.49917645 6.30158257 71.68969512 C6.30049289 74.80481949 6.3054461 77.91992441 6.310188 81.03504449 C6.32118569 88.40594696 6.32177661 95.77679843 6.31567383 103.14770508 C6.30964618 110.66226567 6.32193706 118.17663845 6.3432439 125.69116706 C6.36106314 132.22451028 6.36682973 138.75779484 6.36360615 145.29116136 C6.36182468 149.15721001 6.36410402 153.0231248 6.37832069 156.88915062 C6.44982805 178.12243578 5.5863512 199.01613225 2 220 C1.67 220 1.34 220 1 220 C0.75068009 211.1352922 1.23777065 202.74658589 2.46484375 193.984375 C3.70458001 184.95434786 4.1487761 176.09272642 4.14526367 166.9765625 C4.14862228 165.70988739 4.1519809 164.44321228 4.15544128 163.13815308 C4.16421293 159.68669144 4.16661681 156.23525467 4.16725707 152.78378296 C4.16797273 150.61293284 4.17011695 148.44208883 4.17275429 146.27124023 C4.18199292 138.65510668 4.186092 131.03899053 4.18530273 123.42285156 C4.1847059 116.39650724 4.19518349 109.37024067 4.2110464 102.34391594 C4.22427845 96.25927825 4.22948002 90.17466541 4.22884732 84.0900135 C4.2285964 80.47984199 4.23121478 76.86973931 4.24202538 73.25958252 C4.30018159 52.32795422 4.18714548 31.32588589 0.41066265 10.67468262 C-0.14412089 7.06132775 -0.14029535 3.64767899 0 0 Z " fill="#251532" transform="translate(403,92)"/>
<path d="M0 0 C0.91884979 -0.00335861 1.83769958 -0.00671722 2.78439331 -0.01017761 C5.8337335 -0.01970645 8.88301888 -0.02163182 11.93237305 -0.02270508 C14.04746015 -0.02591676 16.16254703 -0.02928076 18.27763367 -0.03279114 C22.71715815 -0.03878755 27.15666316 -0.04063056 31.59619141 -0.04003906 C37.28590365 -0.03993751 42.9754909 -0.05358021 48.66517353 -0.07081127 C53.03605218 -0.08192959 57.40690063 -0.08395831 61.77779198 -0.08342934 C63.87535215 -0.08461007 65.97291309 -0.08903707 68.07045937 -0.0967617 C71.00539518 -0.10655634 73.94005984 -0.10368535 76.875 -0.09765625 C77.74220169 -0.10327576 78.60940338 -0.10889526 79.50288391 -0.11468506 C83.83283821 -0.09207667 87.18748527 0.12377009 91.1315918 2.14526367 C88.3433106 2.93727211 85.90084123 3.26165535 83.00604248 3.22755432 C81.78615631 3.21699509 81.78615631 3.21699509 80.54162598 3.20622253 C79.65833618 3.19327652 78.77504639 3.18033051 77.86499023 3.16699219 C76.92806335 3.15738464 75.99113647 3.1477771 75.02581787 3.13787842 C71.93079048 3.1049132 68.83590532 3.06457128 65.7409668 3.02416992 C63.5943451 2.99986639 61.44771815 2.97602295 59.30108643 2.95262146 C53.65232354 2.88980374 48.00365372 2.82073044 42.35498047 2.75036621 C36.59045651 2.67966196 30.82586659 2.61485749 25.0612793 2.54956055 C13.75131096 2.42057798 2.44143216 2.28498851 -8.8684082 2.14526367 C-8.8684082 2.80526367 -8.8684082 3.46526367 -8.8684082 4.14526367 C-10.8484082 4.47526367 -12.8284082 4.80526367 -14.8684082 5.14526367 C-9.94783537 0.06067174 -6.91994432 -0.00359111 0 0 Z " fill="#7E32A3" transform="translate(224.868408203125,242.854736328125)"/>
<path d="M0 0 C0 0.66 0 1.32 0 2 C-13.34367128 4.6880119 -26.75960314 4.25423304 -40.3046875 4.1953125 C-42.8405852 4.19157621 -45.37648436 4.18873215 -47.91238403 4.18673706 C-53.86891722 4.17992161 -59.82538344 4.16421329 -65.78188241 4.14403808 C-72.57287739 4.12154445 -79.36387629 4.11065209 -86.15489936 4.10064721 C-100.10330747 4.07984232 -114.0516496 4.04475125 -128 4 C-128 3.67 -128 3.34 -128 3 C-126.33013786 2.98786972 -126.33013786 2.98786972 -124.62654114 2.97549438 C-113.99571249 2.89709478 -103.36499732 2.80914413 -92.73431873 2.71247292 C-87.27252919 2.66309549 -81.81075378 2.616775 -76.34887695 2.578125 C-41.86259462 2.33600978 -41.86259462 2.33600978 -7.4551239 0.17367554 C-4.96145535 -0.00272665 -2.49901412 -0.02976745 0 0 Z " fill="#4C1B53" transform="translate(316,362)"/>
<path d="M0 0 C2.82304338 1.96385626 3.07448 3.31919999 3.875 6.75 C4.2643272 11.16237491 3.2292577 14.13595333 1 18 C-4.30389836 22.91580824 -7.95763638 23.1488609 -14.97607422 23.14526367 C-15.90628387 23.14862228 -16.83649353 23.1519809 -17.79489136 23.15544128 C-20.88150352 23.16496943 -23.96806153 23.16689537 -27.0546875 23.16796875 C-29.19459048 23.17118019 -31.33449324 23.17454417 -33.47439575 23.17805481 C-37.96519479 23.18405085 -42.45597458 23.18589424 -46.94677734 23.18530273 C-52.70608964 23.18520112 -58.46527863 23.19885054 -64.22456169 23.21607494 C-68.64601205 23.22718468 -73.06743252 23.22922225 -77.48889542 23.22869301 C-79.61240183 23.22987478 -81.73590898 23.23430757 -83.8594017 23.24202538 C-86.82806825 23.25180388 -89.796466 23.24895556 -92.76513672 23.24291992 C-94.08535828 23.25134918 -94.08535828 23.25134918 -95.43225098 23.25994873 C-96.2426181 23.25575424 -97.05298523 23.25155975 -97.88790894 23.24723816 C-98.94038724 23.24805531 -98.94038724 23.24805531 -100.01412773 23.24888897 C-102.34031961 22.95734781 -103.97080491 22.14621096 -106 21 C-106 20.67 -106 20.34 -106 20 C-104.02 20 -102.04 20 -100 20 C-100 20.66 -100 21.32 -100 22 C-88.07371508 21.89251578 -76.14749097 21.77988576 -64.22131729 21.66066074 C-58.68369788 21.60546385 -53.14607316 21.55204894 -47.60839844 21.50268555 C-42.2656366 21.45499441 -36.92293888 21.40264975 -31.5802536 21.34705925 C-29.54050032 21.32665725 -27.50072948 21.30794061 -25.46094513 21.29092598 C-22.60703678 21.26683437 -19.75324932 21.23678615 -16.89941406 21.20532227 C-15.6305838 21.19668907 -15.6305838 21.19668907 -14.33612061 21.18788147 C-10.73018808 21.14260469 -7.47122409 20.97125112 -4 20 C-4 19.34 -4 18.68 -4 18 C-3.34 18 -2.68 18 -2 18 C-2 17.34 -2 16.68 -2 16 C-1.01 16 -0.02 16 1 16 C1.02712153 14.083412 1.04645097 12.1667127 1.0625 10.25 C1.07410156 9.18265625 1.08570313 8.1153125 1.09765625 7.015625 C1.01510087 4.46631499 0.74617558 2.42066409 0 0 Z " fill="#3E2A36" transform="translate(318,248)"/>
<path d="M0 0 C-18.14779943 12.09853295 -49.33243691 8.1406251 -70 8 C-70 7.67 -70 7.34 -70 7 C-60.56661612 5.86887248 -51.13058138 5.65387216 -41.640625 5.39453125 C-40.42890625 5.35714844 -39.2171875 5.31976563 -37.96875 5.28125 C-36.86982422 5.25095703 -35.77089844 5.22066406 -34.63867188 5.18945312 C-32.02264144 5.17049219 -32.02264144 5.17049219 -30 4 C-28.00039988 3.960008 -25.99952758 3.95653201 -24 4 C-24 3.34 -24 2.68 -24 2 C-23.01257813 1.93941406 -22.02515625 1.87882812 -21.0078125 1.81640625 C-19.72648437 1.73261719 -18.44515625 1.64882813 -17.125 1.5625 C-15.84882813 1.48128906 -14.57265625 1.40007812 -13.2578125 1.31640625 C-8.52230271 0.85648264 -4.95345896 -0.0798945 0 0 Z " fill="#7D2D8E" transform="translate(344,384)"/>
<path d="M0 0 C2.64 0 5.28 0 8 0 C8 0.66 8 1.32 8 2 C11.3 2 14.6 2 18 2 C18 2.66 18 3.32 18 4 C19.48113281 3.98259766 19.48113281 3.98259766 20.9921875 3.96484375 C22.27351563 3.95582031 23.55484375 3.94679688 24.875 3.9375 C26.15117188 3.92589844 27.42734375 3.91429687 28.7421875 3.90234375 C32 4 32 4 34 5 C36.58716103 5.20882914 39.15873241 5.37461608 41.75 5.5 C46.57525744 5.73861163 51.23975654 6.10184086 56 7 C56 7.33 56 7.66 56 8 C36.61915348 8.29867743 18.60047061 6.55649652 0 1 C0 0.67 0 0.34 0 0 Z " fill="#863072" transform="translate(96,384)"/>
<path d="M0 0 C16.01552 -0.19531122 31.99856404 0.40489219 48 1 C48 1.33 48 1.66 48 2 C39.60639379 2.83159403 31.30742205 3.15479654 22.875 3.125 C21.22177734 3.13080078 21.22177734 3.13080078 19.53515625 3.13671875 C12.96190998 3.1289213 6.52457649 2.80616073 0 2 C0 1.34 0 0.68 0 0 Z " fill="#8E2E9D" transform="translate(140,364)"/>
<path d="M0 0 C3.86191855 5.79287782 4.87853502 12.17779597 4 19 C1.8951688 26.97560364 -1.54421889 36.58175934 -9 41 C-9 39.68 -9 38.36 -9 37 C-8.34 37 -7.68 37 -7 37 C-7 36.34 -7 35.68 -7 35 C-6.34 35 -5.68 35 -5 35 C-5 34.34 -5 33.68 -5 33 C-4.34 33 -3.68 33 -3 33 C-2.34 30.36 -1.68 27.72 -1 25 C-0.34 25 0.32 25 1 25 C1.02718316 22.14576808 1.04692705 19.29179985 1.0625 16.4375 C1.07087891 15.63763672 1.07925781 14.83777344 1.08789062 14.01367188 C1.10742247 9.22836896 0.80437018 4.71854949 0 0 Z " fill="#2E0B43" transform="translate(181,199)"/>
<path d="M0 0 C0.33 0 0.66 0 1 0 C1.33146723 13.51649713 0.3342187 26.66761569 -2 40 C-2.33 40 -2.66 40 -3 40 C-3.25153179 31.0566474 -2.73411374 22.5739003 -1.51171875 13.734375 C-0.88571531 9.16598348 -0.41939128 4.59123083 0 0 Z " fill="#4A2567" transform="translate(407,272)"/>
<path d="M0 0 C1.28390625 0.02707031 1.28390625 0.02707031 2.59375 0.0546875 C3.2228125 0.07789063 3.851875 0.10109375 4.5 0.125 C4.5 0.455 4.5 0.785 4.5 1.125 C3.01113281 1.36283203 3.01113281 1.36283203 1.4921875 1.60546875 C-7.98715912 3.20336208 -16.50747731 5.67596915 -25.5 9.125 C-27.49653104 9.80198466 -29.49553129 10.47189233 -31.5 11.125 C-31.5 10.135 -31.5 9.145 -31.5 8.125 C-28.6679225 7.16281983 -25.83443873 6.2051792 -23 5.25 C-22.20851563 4.98058594 -21.41703125 4.71117187 -20.6015625 4.43359375 C-6.84328066 -0.19009113 -6.84328066 -0.19009113 0 0 Z " fill="#2C0F3D" transform="translate(121.5,45.875)"/>
<path d="M0 0 C2.82304338 1.96385626 3.07448 3.31919999 3.875 6.75 C4.2643272 11.16237491 3.2292577 14.13595333 1 18 C-4.22660983 22.84417497 -7.1341902 23.11073887 -14 23 C-14 22.67 -14 22.34 -14 22 C-10.7 21.34 -7.4 20.68 -4 20 C-4 19.34 -4 18.68 -4 18 C-3.34 18 -2.68 18 -2 18 C-2 17.34 -2 16.68 -2 16 C-1.01 16 -0.02 16 1 16 C1.02712153 14.083412 1.04645097 12.1667127 1.0625 10.25 C1.07410156 9.18265625 1.08570313 8.1153125 1.09765625 7.015625 C1.01510087 4.46631499 0.74617558 2.42066409 0 0 Z " fill="#4A2559" transform="translate(318,248)"/>
<path d="M0 0 C3.37227042 2.69781634 4.56631831 6.33926422 6.0625 10.25 C6.31837891 10.89324219 6.57425781 11.53648438 6.83789062 12.19921875 C11.37603605 23.79540525 11.37603605 23.79540525 11 30 C9.11608215 26.73454239 8.50712033 23.71888239 8 20 C7.34 20 6.68 20 6 20 C5.71125 18.7625 5.4225 17.525 5.125 16.25 C4.54038945 13.87815147 3.97143069 11.94286138 2.875 9.75 C2 8 2 8 2 4 C1.34 4 0.68 4 0 4 C0 2.68 0 1.36 0 0 Z " fill="#34114C" transform="translate(392,62)"/>
<path d="M0 0 C0.33 0 0.66 0 1 0 C3.11161731 19.96810934 3.11161731 19.96810934 4 29 C1.36497961 26.70213773 0.10298961 24.83077266 -0.33007812 21.33740234 C-0.39355367 18.11294707 -0.3479692 14.91106364 -0.25 11.6875 C-0.22292969 10.00430664 -0.22292969 10.00430664 -0.1953125 8.28710938 C-0.14827856 5.52386553 -0.08256317 2.76237302 0 0 Z " fill="#762D77" transform="translate(60,281)"/>
<path d="M0 0 C2.64 0 5.28 0 8 0 C8 0.66 8 1.32 8 2 C11.3 2 14.6 2 18 2 C18 2.66 18 3.32 18 4 C19.423125 3.938125 19.423125 3.938125 20.875 3.875 C24 4 24 4 26 6 C16.77799299 5.66219755 8.77030302 3.78937152 0 1 C0 0.67 0 0.34 0 0 Z " fill="#7C325D" transform="translate(96,384)"/>
<path d="M0 0 C2 3.75 2 3.75 2 6 C2.66 6 3.32 6 4 6 C4 12.27 4 18.54 4 25 C3.67 25 3.34 25 3 25 C2.49389097 21.77176021 1.99620093 18.54227635 1.5 15.3125 C1.35691406 14.40048828 1.21382813 13.48847656 1.06640625 12.54882812 C0.93105469 11.66259766 0.79570312 10.77636719 0.65625 9.86328125 C0.53056641 9.05157471 0.40488281 8.23986816 0.27539062 7.40356445 C-0.00977723 4.91466595 -0.04674739 2.50293311 0 0 Z " fill="#5E1D86" transform="translate(376,96)"/>
<path d="M0 0 C-7.58303564 5.05535709 -17.11980804 5.5505662 -26 6 C-22.72275128 4.17139021 -19.51995601 3.29276609 -15.875 2.4375 C-5.18929912 -0.08369837 -5.18929912 -0.08369837 0 0 Z " fill="#602A65" transform="translate(344,384)"/>
<path d="M0 0 C1.03898437 0.13277344 2.07796875 0.26554687 3.1484375 0.40234375 C10.75719945 1.36804314 18.36091435 2.30219891 26 3 C26 3.33 26 3.66 26 4 C23.16607074 4.08174796 20.33455181 4.14084985 17.5 4.1875 C16.70851562 4.21263672 15.91703125 4.23777344 15.1015625 4.26367188 C9.37869682 4.33403498 5.24796143 3.29297398 0 1 C0 0.67 0 0.34 0 0 Z " fill="#822C85" transform="translate(112,360)"/>
<path d="M0 0 C1.16015625 0.01289063 2.3203125 0.02578125 3.515625 0.0390625 C4.7221875 0.07257813 5.92875 0.10609375 7.171875 0.140625 C9.00492188 0.16769531 9.00492188 0.16769531 10.875 0.1953125 C13.89141578 0.242444 16.90624991 0.30823087 19.921875 0.390625 C19.921875 0.720625 19.921875 1.050625 19.921875 1.390625 C12.001875 1.390625 4.081875 1.390625 -4.078125 1.390625 C-4.078125 2.050625 -4.078125 2.710625 -4.078125 3.390625 C-6.058125 3.720625 -8.038125 4.050625 -10.078125 4.390625 C-6.88800725 0.5005658 -4.97874191 -0.09762239 0 0 Z " fill="#A72FE7" transform="translate(220.078125,243.609375)"/>
<path d="M0 0 C1.32 0.33 2.64 0.66 4 1 C1.65269212 2.32621385 -0.70164258 3.63580199 -3.0625 4.9375 C-4.04766602 5.49727539 -4.04766602 5.49727539 -5.05273438 6.06835938 C-9.44077463 8.46773114 -13.00873138 9.59109243 -18 10 C-14.79663178 7.16625119 -12.21912747 6.4794463 -8 6 C-8 5.34 -8 4.68 -8 4 C-5.36 3.34 -2.72 2.68 0 2 C0 1.34 0 0.68 0 0 Z " fill="#61296B" transform="translate(362,374)"/>
<path d="M0 0 C0.66 0 1.32 0 2 0 C0.90109517 6.91663627 -0.56569185 13.42736799 -3 20 C-3.33 20 -3.66 20 -4 20 C-4 16.7 -4 13.4 -4 10 C-3.34 10 -2.68 10 -2 10 C-1.34 6.7 -0.68 3.4 0 0 Z " fill="#5A2A7A" transform="translate(402,314)"/>
<path d="M0 0 C1.32 0.33 2.64 0.66 4 1 C2.71064081 2.14842923 1.41843421 3.29366227 0.125 4.4375 C-0.59429687 5.07558594 -1.31359375 5.71367187 -2.0546875 6.37109375 C-5.21192887 9.01480791 -7.07813951 9.11438283 -11.125 9.0625 C-12.03507813 9.05347656 -12.94515625 9.04445313 -13.8828125 9.03515625 C-14.58148438 9.02355469 -15.28015625 9.01195312 -16 9 C-16 8.67 -16 8.34 -16 8 C-12.04 7.34 -8.08 6.68 -4 6 C-4 5.34 -4 4.68 -4 4 C-3.34 4 -2.68 4 -2 4 C-2 3.34 -2 2.68 -2 2 C-1.34 2 -0.68 2 0 2 C0 1.34 0 0.68 0 0 Z " fill="#4E2945" transform="translate(144,262)"/>
<path d="M0 0 C0.33 1.32 0.66 2.64 1 4 C0.34 4 -0.32 4 -1 4 C-1 7.3 -1 10.6 -1 14 C-0.34 14 0.32 14 1 14 C0.67 15.32 0.34 16.64 0 18 C-2.79385411 14.27486119 -3.45908751 11.46656688 -3.3046875 6.9375 C-2.86858343 4.16432542 -1.66616677 2.22155569 0 0 Z " fill="#662977" transform="translate(209,248)"/>
<path d="M0 0 C0.66 0 1.32 0 2 0 C1.4445017 5.92531524 -1.87444438 11.16168162 -6.3125 15 C-6.869375 15.33 -7.42625 15.66 -8 16 C-8 14.68 -8 13.36 -8 12 C-7.34 12 -6.68 12 -6 12 C-6 11.34 -6 10.68 -6 10 C-5.34 10 -4.68 10 -4 10 C-4 9.34 -4 8.68 -4 8 C-3.34 8 -2.68 8 -2 8 C-1.34 5.36 -0.68 2.72 0 0 Z " fill="#4A2059" transform="translate(180,224)"/>
<path d="M0 0 C0.66 0 1.32 0 2 0 C2 0.66 2 1.32 2 2 C2.66 2 3.32 2 4 2 C4 2.66 4 3.32 4 4 C4.66 4 5.32 4 6 4 C6 4.66 6 5.32 6 6 C6.66 6 7.32 6 8 6 C8 6.66 8 7.32 8 8 C8.66 8 9.32 8 10 8 C9.67 9.32 9.34 10.64 9 12 C1.33257403 4.88610478 1.33257403 4.88610478 0 0 Z " fill="#8B308A" transform="translate(52,352)"/>
<path d="M0 0 C3.3 0 6.6 0 10 0 C6.14059254 3.85940746 -0.35985738 3.94344336 -5.625 4.125 C-6.40875 4.08375 -7.1925 4.0425 -8 4 C-6 2 -6 2 -2.875 1.875 C-1.92625 1.91625 -0.9775 1.9575 0 2 C0 1.34 0 0.68 0 0 Z " fill="#9230B8" transform="translate(320,386)"/>
<path d="M0 0 C4.96916636 0.51405169 9.29026351 1.23384882 14 3 C14 3.33 14 3.66 14 4 C9.1666528 4.08333357 4.76307437 3.95261487 0 3 C0 2.01 0 1.02 0 0 Z " fill="#6A1F95" transform="translate(334,22)"/>
<path d="M0 0 C1.32 0.33 2.64 0.66 4 1 C2.38050958 2.50594681 0.75424026 4.00460668 -0.875 5.5 C-2.23238281 6.75296875 -2.23238281 6.75296875 -3.6171875 8.03125 C-6 10 -6 10 -8 10 C-8 9.34 -8 8.68 -8 8 C-7.34 8 -6.68 8 -6 8 C-6 7.34 -6 6.68 -6 6 C-5.34 6 -4.68 6 -4 6 C-4 5.34 -4 4.68 -4 4 C-3.34 4 -2.68 4 -2 4 C-2 3.34 -2 2.68 -2 2 C-1.34 2 -0.68 2 0 2 C0 1.34 0 0.68 0 0 Z " fill="#4B284F" transform="translate(156,252)"/>
<path d="M0 0 C-3.92826365 2.77675038 -6.53124892 3.34512366 -11.3125 3.1875 C-12.91544922 3.14689453 -12.91544922 3.14689453 -14.55078125 3.10546875 C-15.35902344 3.07066406 -16.16726563 3.03585937 -17 3 C-17 2.67 -17 2.34 -17 2 C-14.54316882 1.47097431 -12.08497874 0.95149191 -9.625 0.4375 C-8.92632812 0.28603516 -8.22765625 0.13457031 -7.5078125 -0.02148438 C-2.2265625 -1.11328125 -2.2265625 -1.11328125 0 0 Z " fill="#762B8F" transform="translate(335,359)"/>
<path d="M0 0 C6 9 6 9 6 12 C5.34 12 4.68 12 4 12 C4 11.34 4 10.68 4 10 C3.34 10 2.68 10 2 10 C2 9.34 2 8.68 2 8 C1.34 8 0.68 8 0 8 C0 5.36 0 2.72 0 0 Z " fill="#7E2E7E" transform="translate(68,324)"/>
<path d="M0 0 C0.33 1.32 0.66 2.64 1 4 C0.01 5.485 0.01 5.485 -1 7 C-1.66 7 -2.32 7 -3 7 C-3 7.66 -3 8.32 -3 9 C-3.66 9 -4.32 9 -5 9 C-5.33 9.99 -5.66 10.98 -6 12 C-6.33 11.34 -6.66 10.68 -7 10 C-3.535 5.05 -3.535 5.05 0 0 Z " fill="#6C2394" transform="translate(55,51)"/>
<path d="M0 0 C5.28497409 -0.44041451 5.28497409 -0.44041451 8 0 C10.5 2.5 10.5 2.5 12 5 C8.76344816 5 7.21247361 4.3449153 4.3125 3 C3.50425781 2.62875 2.69601562 2.2575 1.86328125 1.875 C1.24839844 1.58625 0.63351562 1.2975 0 1 C0 0.67 0 0.34 0 0 Z " fill="#5C1A8A" transform="translate(340,52)"/>
<path d="M0 0 C0.66 0.33 1.32 0.66 2 1 C1.04663979 2.31611677 0.08714226 3.62778961 -0.875 4.9375 C-1.40867187 5.66839844 -1.94234375 6.39929688 -2.4921875 7.15234375 C-4 9 -4 9 -6 10 C-6 8.68 -6 7.36 -6 6 C-5.34 6 -4.68 6 -4 6 C-4 5.34 -4 4.68 -4 4 C-3.34 4 -2.68 4 -2 4 C-2 3.34 -2 2.68 -2 2 C-1.34 2 -0.68 2 0 2 C0 1.34 0 0.68 0 0 Z " fill="#683083" transform="translate(388,350)"/>
<path d="M0 0 C-0.33 0.66 -0.66 1.32 -1 2 C-3.50390625 2.4140625 -3.50390625 2.4140625 -6.5625 2.625 C-7.57441406 2.69976563 -8.58632812 2.77453125 -9.62890625 2.8515625 C-10.41136719 2.90054687 -11.19382812 2.94953125 -12 3 C-4.82142857 -1.78571429 -4.82142857 -1.78571429 0 0 Z " fill="#6C2196" transform="translate(99,25)"/>
<path d="M0 0 C-0.1875 1.8125 -0.1875 1.8125 -1 4 C-3.4375 5.8125 -3.4375 5.8125 -6 7 C-6.66 6.67 -7.32 6.34 -8 6 C-7.0479279 4.99403703 -6.08812654 3.99538437 -5.125 3 C-4.59132812 2.443125 -4.05765625 1.88625 -3.5078125 1.3125 C-2 0 -2 0 0 0 Z " fill="#7C27AB" transform="translate(146,228)"/>
<path d="M0 0 C1.5994614 3.19892281 2.42595236 5.35462576 3.125 8.75 C3.29257813 9.54921875 3.46015625 10.3484375 3.6328125 11.171875 C3.81457031 12.07679688 3.81457031 12.07679688 4 13 C3.34 13 2.68 13 2 13 C2 11.68 2 10.36 2 9 C1.34 9 0.68 9 0 9 C0 6.03 0 3.06 0 0 Z " fill="#6F2F66" transform="translate(64,311)"/>
<path d="M0 0 C1.98 0 3.96 0 6 0 C6 0.66 6 1.32 6 2 C8.97 2 11.94 2 15 2 C15 2.33 15 2.66 15 3 C13.25034642 3.05429959 11.50020213 3.09292823 9.75 3.125 C8.77546875 3.14820313 7.8009375 3.17140625 6.796875 3.1953125 C3.9803502 2.99862781 2.39050964 2.44568916 0 1 C0 0.67 0 0.34 0 0 Z " fill="#4F2B50" transform="translate(212,268)"/>
<path d="M0 0 C0.66 0 1.32 0 2 0 C2 0.66 2 1.32 2 2 C2.66 2 3.32 2 4 2 C4 2.66 4 3.32 4 4 C4.66 4 5.32 4 6 4 C6 4.66 6 5.32 6 6 C6.66 6 7.32 6 8 6 C8 6.66 8 7.32 8 8 C4.11137013 6.73882275 2.10624401 5.54735833 0 2 C0 1.34 0 0.68 0 0 Z " fill="#6B276A" transform="translate(120,262)"/>
<path d="M0 0 C5.445 1.485 5.445 1.485 11 3 C11 3.33 11 3.66 11 4 C8.03 4 5.06 4 2 4 C2 3.34 2 2.68 2 2 C1.34 2 0.68 2 0 2 C0 1.34 0 0.68 0 0 Z " fill="#86318A" transform="translate(100,356)"/>
<path d="M0 0 C0.66 0.33 1.32 0.66 2 1 C-0.475 5.455 -0.475 5.455 -3 10 C-3.33 10 -3.66 10 -4 10 C-4 8.02 -4 6.04 -4 4 C-3.34 4 -2.68 4 -2 4 C-2 3.34 -2 2.68 -2 2 C-1.34 2 -0.68 2 0 2 C0 1.34 0 0.68 0 0 Z " fill="#3C1652" transform="translate(74,70)"/>
<path d="M0 0 C0.66 0.33 1.32 0.66 2 1 C0.71034824 2.37562854 -0.62689293 3.70766393 -2 5 C-2.66 5 -3.32 5 -4 5 C-4 5.99 -4 6.98 -4 8 C-4.99 8 -5.98 8 -7 8 C-5.50902342 4.2047869 -3.24299151 2.38957269 0 0 Z " fill="#5D207F" transform="translate(68,38)"/>
<path d="M0 0 C0.66 0.33 1.32 0.66 2 1 C-0.25 3.5625 -0.25 3.5625 -3 6 C-4.32 5.67 -5.64 5.34 -7 5 C-4.69 3.35 -2.38 1.7 0 0 Z " fill="#7824AB" transform="translate(77,32)"/>
<path d="M0 0 C0.33 0 0.66 0 1 0 C1.125 2.375 1.125 2.375 1 5 C0.34 5.66 -0.32 6.32 -1 7 C-3.125 6.625 -3.125 6.625 -5 6 C-3.35830472 3.97945196 -1.69088222 1.97956942 0 0 Z " fill="#752B9D" transform="translate(365,336)"/>
<path d="M0 0 C0 0.66 0 1.32 0 2 C-5.75 5 -5.75 5 -8 5 C-8 4.01 -8 3.02 -8 2 C-2.25 0 -2.25 0 0 0 Z " fill="#451762" transform="translate(98,52)"/>
<path d="M0 0 C2.25 0.25 2.25 0.25 4 1 C3.34 1 2.68 1 2 1 C2 1.66 2 2.32 2 3 C0.02 3.33 -1.96 3.66 -4 4 C-2.25 1.9375 -2.25 1.9375 0 0 Z " fill="#8C2CBB" transform="translate(214,244)"/>
</svg>
