<svg width="40" height="40" viewBox="0 0 40 40" fill="none" xmlns="http://www.w3.org/2000/svg">
    <style>
        .community-group {
            transition: all 0.3s ease;
        }
        .house-main {
            fill: #20c997;
        }
        .house-roof {
            fill: #1ba87e;
        }
        .person {
            fill: #ffffff;
        }
        .door {
            fill: #a0e6d2;
        }
        .person:nth-child(1) { animation: float 3s ease-in-out infinite; }
        .person:nth-child(2) { animation: float 3s ease-in-out infinite 0.3s; }
        .person:nth-child(3) { animation: float 3s ease-in-out infinite 0.6s; }
        
        @keyframes float {
            0%, 100% { transform: translateY(0); }
            50% { transform: translateY(-1px); }
        }
    </style>
    
    <!-- Домик -->
    <rect class="house-main" x="12" y="14" width="16" height="14" rx="1"/>
    <path class="house-roof" d="M12 14L20 8L28 14H12Z"/>
    
    <!-- Дверь (показывается частично) -->
    <rect class="door" x="18" y="18" width="4" height="10" rx="0.5"/>
    
    <!-- Три человечка в кучке перед дверью -->
    <!-- Первый человечек (слева) -->
    <g class="person" transform="translate(16 26)">
        <circle cx="0" cy="0" r="1.5"/>
        <path d="M0 1.5V4M0 4C0 4 -1.2 5.5 0 5.5C1.2 5.5 0 4 0 4Z" stroke="#ffffff" stroke-width="1"/>
    </g>
    
    <!-- Второй человечек (посередине) -->
    <g class="person" transform="translate(20 25)">
        <circle cx="0" cy="0" r="1.5"/>
        <path d="M0 1.5V4M0 4C0 4 -1.2 5.5 0 5.5C1.2 5.5 0 4 0 4Z" stroke="#ffffff" stroke-width="1"/>
    </g>
    
    <!-- Третий человечек (справа) -->
    <g class="person" transform="translate(24 26)">
        <circle cx="0" cy="0" r="1.5"/>
        <path d="M0 1.5V4M0 4C0 4 -1.2 5.5 0 5.5C1.2 5.5 0 4 0 4Z" stroke="#ffffff" stroke-width="1"/>
    </g>
</svg>
