<?xml version="1.0" encoding="UTF-8"?>
<svg version="1.1" xmlns="http://www.w3.org/2000/svg" width="1024" height="1024">
<path d="M0 0 C0.78818115 0.45213867 1.5763623 0.90427734 2.38842773 1.37011719 C3.64635132 2.09763184 3.64635132 2.09763184 4.9296875 2.83984375 C59.21665639 33.3685251 125.69718015 40.75364106 185.68701172 24.50537109 C206.66459025 18.52595688 229.48422738 10.75700683 247.3828125 -2.0703125 C251.42817909 -3.99512402 254.77916402 -2.87815182 258.91552734 -1.53955078 C261.29966276 -0.67603425 263.64549391 0.25424411 265.9921875 1.21484375 C267.29397949 1.74392334 267.29397949 1.74392334 268.62207031 2.28369141 C296.00434197 13.62636574 319.51585186 29.38911001 341.8046875 48.77734375 C340.015625 53.66015625 340.015625 53.66015625 338.1171875 54.71484375 C335.8046875 54.77734375 335.8046875 54.77734375 332.703125 53.8046875 C321.8350159 50.60619298 308.90156572 51.96235847 298.8046875 56.77734375 C297.52851562 57.38449219 297.52851562 57.38449219 296.2265625 58.00390625 C283.37105366 65.20145162 270.15931679 78.4407173 263.8046875 91.77734375 C263.37929688 92.65777344 262.95390625 93.53820312 262.515625 94.4453125 C256.26129509 109.86840498 259.59674054 125.05711495 265.8046875 139.77734375 C266.1346875 140.76734375 266.4646875 141.75734375 266.8046875 142.77734375 C265.34635417 143.50651042 263.88802083 144.23567708 262.4296875 144.96484375 C261.05683594 145.65900391 261.05683594 145.65900391 259.65625 146.3671875 C257.8758345 147.24763955 256.08054182 148.09931006 254.265625 148.90625 C241.35270147 154.78880405 233.59561509 164.31793065 228.4921875 177.33984375 C222.95944173 192.30393675 223.5860859 215.77786004 229.99121094 230.14892578 C237.31563744 245.33261706 248.01220496 252.88484385 263.43359375 258.6015625 C264.60728516 259.18357422 264.60728516 259.18357422 265.8046875 259.77734375 C267.2072723 263.98509816 265.51160615 266.78817011 263.9296875 270.71484375 C263.36788421 272.13987448 262.80792866 273.56563532 262.25 274.9921875 C261.99750488 275.6224585 261.74500977 276.25272949 261.48486328 276.90209961 C257.02999682 289.18416324 259.72003844 302.94461538 265.03125 314.4296875 C270.90419906 324.87223062 281.23499951 335.73786696 291.33203125 342.15625 C292.14800781 342.69121094 292.96398437 343.22617187 293.8046875 343.77734375 C293.8046875 344.43734375 293.8046875 345.09734375 293.8046875 345.77734375 C237.66672729 345.84599949 181.52877126 345.89886727 125.39077733 345.93053974 C118.76426164 345.93429189 112.13774603 345.93817485 105.51123047 345.94213867 C103.53238753 345.94331907 103.53238753 345.94331907 101.51356797 345.94452331 C80.1484402 345.95746654 58.7833388 345.981235 37.41822512 346.00880214 C15.4981978 346.03684954 -6.42181684 346.05351861 -28.34186137 346.05960923 C-41.86938163 346.06372704 -55.39683349 346.07673631 -68.92433269 346.10109315 C-78.19867822 346.11694211 -87.47298835 346.121746 -96.74734645 346.11784788 C-102.09938645 346.11592505 -107.45130687 346.11888783 -112.80332565 346.13496017 C-117.70506595 346.14957279 -122.60660638 346.15028717 -127.50835593 346.14004043 C-129.279724 346.13877423 -131.05110461 346.14256816 -132.82244806 346.1519933 C-155.0904429 346.26356987 -155.0904429 346.26356987 -164.1953125 338.77734375 C-173.15392449 329.7608097 -175.34185371 322.11791168 -175.35644531 309.72412109 C-175.36141022 308.71337524 -175.36637512 307.70262939 -175.37149048 306.66125488 C-175.38610531 303.31192334 -175.39291981 299.96263947 -175.3984375 296.61328125 C-175.40126488 295.46004993 -175.40409225 294.30681862 -175.40700531 293.1186409 C-175.42201008 286.99266583 -175.43122612 280.86671429 -175.43554688 274.74072266 C-175.44097431 268.48711213 -175.4648752 262.23372571 -175.49351883 255.98018456 C-175.51240498 251.11344848 -175.5173648 246.24676302 -175.51888275 241.37999344 C-175.52186149 239.08011297 -175.52972227 236.78023232 -175.54306793 234.48038864 C-175.88881883 170.20698779 -155.67130607 109.42787624 -110.90625 62.37109375 C-109.02436954 60.48216505 -107.12013904 58.62233878 -105.1953125 56.77734375 C-104.3703125 55.95234375 -103.5453125 55.12734375 -102.6953125 54.27734375 C-101.8703125 53.45234375 -101.0453125 52.62734375 -100.1953125 51.77734375 C-99.70546875 51.24109375 -99.215625 50.70484375 -98.7109375 50.15234375 C-91.70372056 42.71105143 -83.43348266 36.77018789 -75.1953125 30.77734375 C-74.50179687 30.27154785 -73.80828125 29.76575195 -73.09375 29.24462891 C-56.27728406 17.13981063 -37.61864598 7.34598891 -18.3203125 -0.16015625 C-17.46526123 -0.4962793 -16.61020996 -0.83240234 -15.72924805 -1.17871094 C-14.93687744 -1.47036133 -14.14450684 -1.76201172 -13.328125 -2.0625 C-12.64637207 -2.31378662 -11.96461914 -2.56507324 -11.26220703 -2.82397461 C-6.98725074 -3.64856752 -3.63848705 -2.13157458 0 0 Z " fill="#000000" transform="translate(328.1953125,566.22265625)"/>
<path d="M0 0 C1.48951758 1.39055598 2.96940139 2.79020906 4.44287109 4.19775391 C5.82199053 5.51198467 7.21735213 6.80910661 8.61328125 8.10546875 C34.35145264 32.72620867 51.71671665 66.69583223 59.1875 101.3125 C59.33485596 101.99505859 59.48221191 102.67761719 59.6340332 103.38085938 C62.47299399 117.71037672 63.18938571 132.00627935 63.17578125 146.5703125 C63.17968664 148.35179745 63.18402494 150.13328149 63.18876648 151.9147644 C63.19616241 155.62419672 63.19598712 159.33353377 63.19067383 163.04296875 C63.18604755 166.79536948 63.19295003 170.54744577 63.21118164 174.29980469 C63.40818375 215.2308079 63.40818375 215.2308079 59.875 233.5625 C59.53843384 235.32883789 59.53843384 235.32883789 59.19506836 237.13085938 C58.60807284 239.86943035 57.93938289 242.55268584 57.1875 245.25 C56.93258789 246.18875977 56.67767578 247.12751953 56.41503906 248.09472656 C42.72513712 296.6881539 9.68804677 337.86263137 -34.11669922 362.69140625 C-60.70280658 377.18441122 -89.85740099 385.41355199 -120.125 386.5625 C-121.70861328 386.624375 -121.70861328 386.624375 -123.32421875 386.6875 C-165.20456085 387.48050056 -208.10133009 374.674239 -241.125 348.5625 C-241.99511719 347.89992188 -242.86523438 347.23734375 -243.76171875 346.5546875 C-282.84317808 316.246617 -308.80448464 271.63533835 -315.71630859 222.59301758 C-317.70941244 206.43680251 -317.4647641 190.15121767 -317.44067383 173.90136719 C-317.43604387 170.51581533 -317.44297034 167.13062282 -317.46118164 163.74511719 C-317.78497862 102.977165 -303.67451054 51.33023147 -261.125 6.5625 C-260.54621094 5.93085938 -259.96742188 5.29921875 -259.37109375 4.6484375 C-249.57503429 -5.71230709 -237.15813833 -13.90829929 -225.125 -21.4375 C-224.20992676 -22.01346924 -224.20992676 -22.01346924 -223.27636719 -22.60107422 C-200.77731485 -36.55143851 -175.20096124 -44.02991835 -149.125 -47.4375 C-147.70574219 -47.63666016 -147.70574219 -47.63666016 -146.2578125 -47.83984375 C-93.63346356 -53.97654898 -38.91610989 -35.55012072 0 0 Z " fill="#000000" transform="translate(577.125,160.4375)"/>
<path d="M0 0 C1.04994141 -0.01224609 2.09988281 -0.02449219 3.18164062 -0.03710938 C4.69854492 -0.04000977 4.69854492 -0.04000977 6.24609375 -0.04296875 C7.63139282 -0.04913208 7.63139282 -0.04913208 9.04467773 -0.05541992 C11.78065433 0.20854757 13.30434327 0.62679544 15.5625 2.1875 C16.86010742 4.13085938 16.86010742 4.13085938 17.98046875 6.53125 C18.40118652 7.42714844 18.8219043 8.32304688 19.25537109 9.24609375 C21.53061475 14.36602943 23.73363276 19.51014986 25.875 24.6875 C26.32939453 25.7703125 26.78378906 26.853125 27.25195312 27.96875 C27.89487305 29.515625 27.89487305 29.515625 28.55078125 31.09375 C28.93790283 32.02509766 29.32502441 32.95644531 29.72387695 33.91601562 C30.5625 36.1875 30.5625 36.1875 30.5625 38.1875 C31.820625 38.414375 33.07875 38.64125 34.375 38.875 C39.29001251 39.94821476 43.57178245 41.87311066 48.08203125 44.06640625 C52.75558592 46.19237832 52.75558592 46.19237832 57.76708984 45.10766602 C59.02399415 44.56316896 60.27588 44.0069907 61.5234375 43.44140625 C62.19162506 43.15144272 62.85981262 42.86147919 63.54824829 42.56272888 C65.68291286 41.63593706 67.81073812 40.69477307 69.9375 39.75 C72.73166533 38.50952528 75.53167742 37.28385862 78.3359375 36.06640625 C78.97050873 35.77891006 79.60507996 35.49141388 80.25888062 35.19520569 C84.18157919 33.49315354 87.29420475 32.7823512 91.5625 33.1875 C93.546875 34.3671875 93.546875 34.3671875 95.3125 36.0625 C95.97894531 36.69929687 96.64539063 37.33609375 97.33203125 37.9921875 C98.06808594 38.71664062 98.80414062 39.44109375 99.5625 40.1875 C100.89861328 41.39792969 100.89861328 41.39792969 102.26171875 42.6328125 C103.16535156 43.47585938 104.06898438 44.31890625 105 45.1875 C105.84433594 45.97125 106.68867187 46.755 107.55859375 47.5625 C110.23922538 51.07397068 110.65472465 52.73436693 110.5625 57.1875 C109.28838561 61.44787893 107.57319777 65.48306911 105.8125 69.5625 C104.04601109 73.76414876 102.28946544 77.96943745 100.5625 82.1875 C100.20849121 83.05149414 99.85448242 83.91548828 99.48974609 84.80566406 C97.76220775 89.28067197 97.76220775 89.28067197 98.2578125 93.9375 C98.72960937 94.68 99.20140625 95.4225 99.6875 96.1875 C102.78029518 101.50246437 105.5625 106.92916699 105.5625 113.1875 C106.79484375 113.58195313 108.0271875 113.97640625 109.296875 114.3828125 C115.23564278 116.36627723 121.02117536 118.68748632 126.8125 121.0625 C128.40578125 121.69478516 128.40578125 121.69478516 130.03125 122.33984375 C140.93756617 126.82020228 140.93756617 126.82020228 143.5625 131.1875 C144.24427119 135.56071859 144.21425609 139.8330299 144.125 144.25 C144.13595703 145.43400391 144.14691406 146.61800781 144.15820312 147.83789062 C144.08455003 156.50440489 144.08455003 156.50440489 141.88232422 159.38598633 C139.30809871 161.38506127 136.87340084 162.62797013 133.87890625 163.9140625 C132.78642578 164.3884375 131.69394531 164.8628125 130.56835938 165.3515625 C129.43205078 165.83367187 128.29574219 166.31578125 127.125 166.8125 C125.99255859 167.30234375 124.86011719 167.7921875 123.69335938 168.296875 C120.65518349 169.60739047 117.61400505 170.90834315 114.5625 172.1875 C113.23786743 172.75863525 113.23786743 172.75863525 111.88647461 173.34130859 C109.5625 174.1875 109.5625 174.1875 106.5625 174.1875 C106.40394531 174.85394531 106.24539063 175.52039063 106.08203125 176.20703125 C104.50676038 182.42978636 102.44541365 187.89840253 99.453125 193.58203125 C97.66695232 198.80736975 99.97042394 203.5792913 102.06640625 208.43359375 C102.55947266 209.60083984 103.05253906 210.76808594 103.56054688 211.97070312 C104.60270934 214.40501769 105.64958099 216.83732163 106.70117188 219.26757812 C107.19294922 220.43611328 107.68472656 221.60464844 108.19140625 222.80859375 C108.64588135 223.8648999 109.10035645 224.92120605 109.56860352 226.00952148 C110.68668143 229.58456944 110.8183554 232.46197516 110.5625 236.1875 C109.3828125 238.26953125 109.3828125 238.26953125 107.6875 240 C107.048125 240.65613281 106.40875 241.31226563 105.75 241.98828125 C105.028125 242.71402344 104.30625 243.43976563 103.5625 244.1875 C102.386875 245.53908203 102.386875 245.53908203 101.1875 246.91796875 C100.3625 247.83191406 99.5375 248.74585938 98.6875 249.6875 C97.92695312 250.5434375 97.16640625 251.399375 96.3828125 252.28125 C93.26113432 254.39119315 91.07221875 254.92097034 87.31005859 254.72509766 C81.16797212 253.5233139 75.49245469 250.68275238 69.8125 248.125 C67.85954007 247.24980963 65.90501005 246.3799891 63.94256592 245.52626038 C62.17238688 244.75586712 60.41062186 243.9662246 58.64941406 243.17553711 C53.43073753 241.5051809 50.03927914 243.29616291 45.3125 245.625 C41.64405369 247.38486276 38.5917136 248.44372382 34.5625 248.9375 C32.47779197 249.27128046 32.47779197 249.27128046 30.5625 250.1875 C29.59620076 251.87151588 29.59620076 251.87151588 29.12109375 253.99609375 C27.35474593 260.00358461 25.0119558 265.71526759 22.625 271.5 C22.19509766 272.57056641 21.76519531 273.64113281 21.32226562 274.74414062 C20.89751953 275.77345703 20.47277344 276.80277344 20.03515625 277.86328125 C19.46680054 279.2541394 19.46680054 279.2541394 18.88696289 280.6730957 C17.10138066 284.06290425 15.00823109 286.46463446 11.5625 288.1875 C7.79749463 288.45605112 4.02350555 288.41910387 0.25 288.4375 C-0.79607422 288.458125 -1.84214844 288.47875 -2.91992188 288.5 C-3.93248047 288.50515625 -4.94503906 288.5103125 -5.98828125 288.515625 C-6.91294189 288.5249707 -7.83760254 288.53431641 -8.7902832 288.54394531 C-11.99593909 288.11230669 -13.83982515 287.09003818 -16.4375 285.1875 C-18.17578125 282.28125 -18.17578125 282.28125 -19.75 278.6875 C-20.04720947 278.04111572 -20.34441895 277.39473145 -20.65063477 276.72875977 C-22.36396347 272.93940081 -23.81322796 269.13757916 -25.1015625 265.18359375 C-28.09866628 255.43248374 -28.09866628 255.43248374 -35.2578125 248.75390625 C-38.52333491 247.40767733 -41.83693424 246.45933819 -45.30102539 245.77734375 C-47.4375 245.1875 -47.4375 245.1875 -50.71655273 243.46728516 C-55.32115345 241.88357563 -57.68447262 242.79540285 -61.875 244.7734375 C-62.55876709 245.0686026 -63.24253418 245.3637677 -63.94702148 245.6678772 C-66.12176307 246.60925782 -68.27989031 247.58255747 -70.4375 248.5625 C-72.59608476 249.53227098 -74.75702748 250.49391533 -76.92797852 251.43569946 C-78.27452011 252.02073585 -79.6141791 252.62197174 -80.94506836 253.24179077 C-85.49826707 255.23273854 -88.62923478 255.34410574 -93.4375 254.1875 C-95.58984375 252.83984375 -95.58984375 252.83984375 -97.375 251.125 C-98.035 250.50109375 -98.695 249.8771875 -99.375 249.234375 C-100.055625 248.55890625 -100.73625 247.8834375 -101.4375 247.1875 C-102.18 246.47078125 -102.9225 245.7540625 -103.6875 245.015625 C-110.2432793 238.60032669 -110.2432793 238.60032669 -110.87890625 233.9765625 C-110.78557695 226.45931156 -106.52243326 219.34141183 -103.48901367 212.59082031 C-102.63526844 210.67770582 -101.79974851 208.7573316 -100.96484375 206.8359375 C-100.45687256 205.70333496 -99.94890137 204.57073242 -99.42553711 203.40380859 C-97.56216995 197.33808114 -99.88822252 192.71264915 -102.375 187.125 C-105.4330654 180.20490606 -105.4330654 180.20490606 -106.07275391 177.6940918 C-108.05558461 174.05228091 -111.04967882 173.16902651 -114.74609375 171.7421875 C-115.46861832 171.44563263 -116.19114288 171.14907776 -116.93556213 170.84353638 C-119.24224555 169.8995614 -121.55760819 168.979836 -123.875 168.0625 C-126.18717244 167.13455229 -128.49703943 166.20154318 -130.8037262 165.26004028 C-132.23814532 164.67586584 -133.67600312 164.10004759 -135.11753845 163.53366089 C-141.46861462 160.97065855 -141.46861462 160.97065855 -143.4375 158.1875 C-145.01282472 153.74535786 -144.66062919 148.96786816 -144.6875 144.3125 C-144.708125 143.42691406 -144.72875 142.54132813 -144.75 141.62890625 C-144.78083106 136.45699557 -144.7510571 132.39694476 -141.4375 128.1875 C-136.51275763 124.91175822 -131.09010743 123.01514787 -125.4921875 121.21484375 C-112.88746195 117.40214294 -112.88746195 117.40214294 -104.13671875 108.23046875 C-102.00753077 103.35965319 -100.57342267 98.37129767 -99.4375 93.1875 C-99.20039307 92.57100586 -98.96328613 91.95451172 -98.71899414 91.31933594 C-98.2799375 87.99423399 -99.60793909 85.70964596 -100.9296875 82.6640625 C-101.19508331 82.04026703 -101.46047913 81.41647156 -101.73391724 80.77377319 C-102.58277542 78.78190175 -103.44641578 76.79693532 -104.3125 74.8125 C-105.16976085 72.83457681 -106.02353233 70.85536311 -106.86965942 68.87265015 C-107.64083188 67.06751449 -108.42339155 65.26725614 -109.20654297 63.46728516 C-110.85870479 59.06523401 -111.9827096 55.75264544 -110.41015625 51.23828125 C-107.96216928 47.45238457 -105.10814427 44.49432621 -101.875 41.375 C-101.28525391 40.79041016 -100.69550781 40.20582031 -100.08789062 39.60351562 C-94.72834718 34.34152928 -94.72834718 34.34152928 -89.73828125 33.74609375 C-82.52056735 33.82556808 -76.0909524 37.34952863 -69.625 40.25 C-67.66138105 41.12424527 -65.69609801 41.99332678 -63.72419739 42.84873962 C-61.94773762 43.62009238 -60.17906401 44.40930445 -58.41088867 45.19946289 C-53.12034269 46.95747583 -49.5063467 44.42422936 -44.5625 42.25 C-37.74114194 39.2518437 -37.74114194 39.2518437 -34.43969727 38.55224609 C-30.30512489 36.67274218 -29.42015048 33.90795461 -27.89453125 29.87890625 C-27.59939133 29.15638168 -27.3042514 28.43385712 -27.00016785 27.68943787 C-26.06234435 25.38414238 -25.15496916 23.06836688 -24.25 20.75 C-23.32941014 18.43758027 -22.40258478 16.12795011 -21.46769714 13.8212738 C-20.88833406 12.38712484 -20.31804364 10.94926879 -19.75801086 9.50746155 C-17.27364083 3.27501483 -17.27364083 3.27501483 -14.4375 1.1875 C-9.71782168 -0.38572611 -4.94260529 0.003023 0 0 Z M-43.48828125 106.765625 C-54.94264095 120.99749477 -58.04401886 136.27462916 -56.4375 154.1875 C-53.72932843 169.18189624 -44.78696 181.98101842 -32.625 191 C-19.12678666 199.85950845 -4.41016154 202.98760121 11.375 200.0625 C26.94028038 196.46020153 39.71244231 187.48234113 48.5625 174.1875 C56.0460358 160.91591699 58.70500525 146.15746242 55.5 131.1875 C50.58558675 114.04419796 40.79024878 101.72517745 25.32910156 93.09472656 C1.81640762 81.01993791 -25.71067684 88.15863945 -43.48828125 106.765625 Z " fill="#000000" transform="translate(737.4375,623.8125)"/>
<path d="M0 0 C2 1 2 1 2 1 Z " fill="#000000" transform="translate(677,911)"/>
</svg>
